<?xml version="1.0" encoding="UTF-8" standalone="no"?>
<!DOCTYPE svg PUBLIC "-//W3C//DTD SVG 1.1//EN" "http://www.w3.org/Graphics/SVG/1.1/DTD/svg11.dtd">
<svg width="100%" height="100%" viewBox="0 0 47 47" version="1.1" xmlns="http://www.w3.org/2000/svg" xmlns:xlink="http://www.w3.org/1999/xlink" xml:space="preserve" style="fill-rule:evenodd;clip-rule:evenodd;stroke-linecap:round;stroke-linejoin:round;stroke-miterlimit:1.5;">
    <g transform="matrix(1,0,0,1,-1164,-1924)">
        <g transform="matrix(1,0,0,2.0834,0,0)">
            <g id="Back-To-Top" transform="matrix(0.642857,0,0,0.642857,441.143,339.864)">
                <g transform="matrix(0.972222,0,0,0.466652,31.2778,26.1725)">
                    <circle cx="1162" cy="1927" r="36" style="fill:none;stroke:white;stroke-width:3.2px;"/>
                </g>
                <g id="Arrow-Up-Icon" transform="matrix(1,0,0,0.479985,965.003,-648.46)">
                    <path d="M203.397,3283.54L195.492,3275.63L187.588,3283.54C186.995,3284.14 186.034,3284.14 185.442,3283.54C184.849,3282.95 184.849,3281.99 185.442,3281.39L194.388,3272.44C194.692,3272.14 195.093,3271.99 195.492,3272C195.891,3271.99 196.292,3272.14 196.597,3272.44L205.543,3281.39C206.135,3281.99 206.135,3282.95 205.543,3283.54C204.95,3284.14 203.989,3284.14 203.397,3283.54Z" style="fill:white;"/>
                </g>
            </g>
        </g>
    </g>
</svg>
