<?xml version="1.0" encoding="UTF-8" standalone="no"?>
<!DOCTYPE svg PUBLIC "-//W3C//DTD SVG 1.1//EN" "http://www.w3.org/Graphics/SVG/1.1/DTD/svg11.dtd">
<svg width="100%" height="100%" viewBox="0 0 55 55" version="1.1" xmlns="http://www.w3.org/2000/svg" xmlns:xlink="http://www.w3.org/1999/xlink" xml:space="preserve" style="fill-rule:evenodd;clip-rule:evenodd;stroke-linejoin:round;stroke-miterlimit:1.41421;">
    <g transform="matrix(1,0,0,1,-891.499,-957.982)">
        <g transform="matrix(1,0,0,2.0834,0,0)">
            <g transform="matrix(2.29167,0,0,1.09997,918.999,473.016)">
                <g transform="matrix(1,0,0,1,-12,-12)">
                    <path d="M12,10.9C11.39,10.9 10.9,11.39 10.9,12C10.9,12.61 11.39,13.1 12,13.1C12.61,13.1 13.1,12.61 13.1,12C13.1,11.39 12.61,10.9 12,10.9ZM12,2C6.48,2 2,6.48 2,12C2,17.52 6.48,22 12,22C17.52,22 22,17.52 22,12C22,6.48 17.52,2 12,2ZM14.19,14.19L6,18L9.81,9.81L18,6L14.19,14.19Z" style="fill:none;stroke:white;stroke-width:1px;"/>
                    <rect x="0" y="0" width="24" height="24" style="fill:none;"/>
                </g>
            </g>
        </g>
    </g>
</svg>
