<?xml version="1.0" encoding="UTF-8" standalone="no"?><!DOCTYPE svg PUBLIC "-//W3C//DTD SVG 1.1//EN" "http://www.w3.org/Graphics/SVG/1.1/DTD/svg11.dtd"><svg width="100%" height="100%" viewBox="0 0 22 22" version="1.1" xmlns="http://www.w3.org/2000/svg" xmlns:xlink="http://www.w3.org/1999/xlink" xml:space="preserve" style="fill-rule:evenodd;clip-rule:evenodd;stroke-linecap:round;stroke-linejoin:round;stroke-miterlimit:1.5;"><rect id="Artboard1" x="-1101" y="-39" width="1300" height="3000" style="fill:none;"/><rect id="Top-Nav-Menu" x="-1101" y="-39" width="1300" height="100" style="fill:none;"/><path id="Search-Bar" d="M39,-7.655c0,-0.742 -0.603,-1.345 -1.345,-1.345l-297.31,0c-0.742,0 -1.345,0.603 -1.345,1.345l0,37.31c0,0.742 0.603,1.345 1.345,1.345l297.31,0c0.742,0 1.345,-0.603 1.345,-1.345l0,-37.31Z" style="fill:none;"/><clipPath id="_clip1"><path d="M39,-7.655c0,-0.742 -0.603,-1.345 -1.345,-1.345l-297.31,0c-0.742,0 -1.345,0.603 -1.345,1.345l0,37.31c0,0.742 0.603,1.345 1.345,1.345l297.31,0c0.742,0 1.345,-0.603 1.345,-1.345l0,-37.31Z"/></clipPath><g clip-path="url(#_clip1)"><path d="M39,-7.658c0,-0.741 -0.601,-1.342 -1.342,-1.342l-297.316,0c-0.741,0 -1.342,0.601 -1.342,1.342l0,37.316c0,0.741 0.601,1.342 1.342,1.342l297.316,0c0.741,0 1.342,-0.601 1.342,-1.342l0,-37.316Z" style="fill:none;stroke:#999;stroke-width:1px;"/><path id="Search-Icon" d="M20.506,20.631c-0.492,0.492 -1.291,0.492 -1.783,0l-3.865,-3.866c-1.46,1.091 -3.266,1.744 -5.228,1.744c-4.835,0 -8.755,-3.919 -8.755,-8.754c0,-4.836 3.92,-8.755 8.755,-8.755c4.835,0 8.755,3.919 8.755,8.755c0,1.962 -0.654,3.768 -1.745,5.228l3.866,3.865c0.492,0.492 0.492,1.29 0,1.783Zm-10.876,-17.13c-3.454,0 -6.254,2.8 -6.254,6.254c0,3.453 2.8,6.253 6.254,6.253c3.453,0 6.253,-2.8 6.253,-6.253c0,-3.454 -2.8,-6.254 -6.253,-6.254Z" style="fill:#999;"/></g></svg>