<?xml version="1.0" encoding="UTF-8" standalone="no"?>
<!DOCTYPE svg PUBLIC "-//W3C//DTD SVG 1.1//EN" "http://www.w3.org/Graphics/SVG/1.1/DTD/svg11.dtd">
<svg width="100%" height="100%" viewBox="0 0 17 19" version="1.1" xmlns="http://www.w3.org/2000/svg" xmlns:xlink="http://www.w3.org/1999/xlink" xml:space="preserve" style="fill-rule:evenodd;clip-rule:evenodd;stroke-linecap:round;stroke-linejoin:round;stroke-miterlimit:1.5;">
    <g transform="matrix(1,0,0,1,-1178.5,-29.5)">
        <g transform="matrix(1,0,0,2.0834,0,0)">
            <g id="tree-logo">
                <g transform="matrix(0.695652,0,0,0.333902,355.348,4.38247)">
                    <path d="M1193,30L1202,48L1184,48L1193,30Z" style="fill:none;stroke:rgb(13,202,242);stroke-width:1.44px;"/>
                </g>
                <g transform="matrix(0.588629,0,0,0.282533,478.05,9.82765)">
                    <path d="M1211.5,28L1218,41L1205,41L1211.5,28Z" style="fill:none;stroke:white;stroke-width:1.7px;"/>
                </g>
                <g transform="matrix(0.695652,0,0,0.333902,351.87,7.72149)">
                    <path d="M1206.47,41L1206.47,45" style="fill:none;stroke:white;stroke-width:1.44px;"/>
                </g>
                <g transform="matrix(0.695652,0,0,0.333902,355.348,4.38247)">
                    <path d="M1193,48L1193,53" style="fill:none;stroke:rgb(13,202,242);stroke-width:1.44px;"/>
                </g>
            </g>
        </g>
    </g>
</svg>
